<svg width="140" height="36" viewBox="0 0 140 36" fill="none" xmlns="http://www.w3.org/2000/svg">
<path d="M0 4C0 1.79086 1.79086 0 4 0H136C138.209 0 140 1.79086 140 4V32C140 34.2091 138.209 36 136 36H4C1.79086 36 0 34.2091 0 32V4Z" fill="#D75E72"/>
<path d="M28.4102 21V4.48H30.0902V21H28.4102ZM32.6102 21V4.48H33.4502V21H32.6102ZM35.9702 21V4.48H36.8102V21H35.9702ZM31.2662 29.316H32.5542V24.052H31.3502V23.436H34.5702V24.052H33.2822V29.316H34.6262V29.932H31.2662V29.316ZM37.6523 21V4.48H39.3323V21H37.6523ZM42.6923 21V4.48H43.5323V21H42.6923ZM44.3723 21V4.48H45.2123V21H44.3723ZM40.4243 25.172H41.1523V26.012C41.339 25.732 41.5723 25.4987 41.8523 25.312C42.1323 25.144 42.431 25.06 42.7483 25.06C43.1777 25.06 43.523 25.2187 43.7843 25.536C44.027 25.872 44.1483 26.376 44.1483 27.048V29.932H43.4203V27.076C43.4203 26.5907 43.3457 26.2453 43.1963 26.04C43.0283 25.816 42.8137 25.704 42.5523 25.704C42.3283 25.704 42.1137 25.7693 41.9083 25.9C41.6843 26.0307 41.4977 26.208 41.3483 26.432C41.2177 26.656 41.1523 26.908 41.1523 27.188V29.932H40.4243V25.172ZM46.8945 21V4.48H47.7345V21H46.8945ZM48.5745 21V4.48H50.2545V21H48.5745ZM53.6145 21V4.48H54.4545V21H53.6145ZM50.5905 25.76H49.5545V25.172H50.5905V24.78C50.5905 24.164 50.7492 23.7067 51.0665 23.408C51.3839 23.1093 51.8132 22.96 52.3545 22.96C52.6532 22.96 52.9332 23.0067 53.1945 23.1C53.4559 23.212 53.6705 23.38 53.8385 23.604L53.4465 24.164L53.3625 24.248L53.3065 24.192C53.3065 24.1733 53.3065 24.1453 53.3065 24.108C53.2879 24.0707 53.2692 24.024 53.2505 23.968C53.2132 23.912 53.1665 23.8653 53.1105 23.828C53.0172 23.7347 52.9145 23.66 52.8025 23.604C52.6905 23.5667 52.5412 23.548 52.3545 23.548C52.0372 23.548 51.7852 23.6507 51.5985 23.856C51.4119 24.0427 51.3185 24.3507 51.3185 24.78V25.172H52.8865V25.76H51.3185V29.932H50.5905V25.76ZM56.1367 21V4.48H56.9767V21H56.1367ZM59.4967 21V4.48H62.8567V21H59.4967ZM63.6967 21V4.48H64.5367V21H63.6967ZM60.7567 30.016C60.3274 30.016 59.9447 29.9133 59.6087 29.708C59.2914 29.5027 59.0394 29.2133 58.8527 28.84C58.6474 28.4667 58.5447 28.0373 58.5447 27.552C58.5447 27.0667 58.6474 26.6373 58.8527 26.264C59.0394 25.8907 59.2914 25.6013 59.6087 25.396C59.9447 25.172 60.3274 25.06 60.7567 25.06C61.1861 25.06 61.5594 25.172 61.8767 25.396C62.2127 25.6013 62.4741 25.8907 62.6607 26.264C62.8474 26.6373 62.9407 27.0667 62.9407 27.552C62.9407 28.0373 62.8474 28.4667 62.6607 28.84C62.4741 29.2133 62.2127 29.5027 61.8767 29.708C61.5594 29.9133 61.1861 30.016 60.7567 30.016ZM60.7567 29.4C61.0181 29.4 61.2607 29.316 61.4847 29.148C61.6901 28.9987 61.8581 28.784 61.9887 28.504C62.1007 28.2053 62.1567 27.8787 62.1567 27.524C62.1567 26.9827 62.0261 26.544 61.7647 26.208C61.5034 25.872 61.1674 25.704 60.7567 25.704C60.3461 25.704 60.0101 25.872 59.7487 26.208C59.4874 26.544 59.3567 26.9827 59.3567 27.524C59.3567 27.8787 59.4127 28.2053 59.5247 28.504C59.6554 28.784 59.8234 28.9987 60.0287 29.148C60.2341 29.316 60.4767 29.4 60.7567 29.4ZM65.3789 21V4.48H67.0589V21H65.3789ZM67.8989 21V4.48H68.7389V21H67.8989ZM71.2589 21V4.48H72.0989V21H71.2589ZM70.2789 30.044C69.7562 30.044 69.3082 29.904 68.9349 29.624C68.5616 29.3627 68.2722 28.98 68.0669 28.476C67.8616 27.9907 67.7589 27.4213 67.7589 26.768C67.7589 25.9093 67.8896 25.228 68.1509 24.724C68.4122 24.22 68.7296 23.8653 69.1029 23.66C69.4762 23.4733 69.8496 23.38 70.2229 23.38C70.6149 23.38 70.9882 23.4827 71.3429 23.688C71.7162 23.8747 71.9869 24.136 72.1549 24.472L71.6509 24.864L71.5669 24.948L71.5389 24.892C71.5389 24.836 71.5296 24.78 71.5109 24.724C71.4736 24.6867 71.4176 24.6213 71.3429 24.528C71.1749 24.3413 71.0069 24.2107 70.8389 24.136C70.6709 24.0613 70.4656 24.024 70.2229 24.024C69.7189 24.024 69.2989 24.22 68.9629 24.612C68.6456 25.0227 68.4869 25.6853 68.4869 26.6C68.4869 27.496 68.6456 28.1867 68.9629 28.672C69.2802 29.1573 69.7189 29.4 70.2789 29.4C70.4842 29.4 70.6989 29.3627 70.9229 29.288C71.1656 29.232 71.3616 29.1387 71.5109 29.008V27.468H70.3349V26.824H72.1829V29.372C71.5669 29.82 70.9322 30.044 70.2789 30.044ZM74.6211 21V4.48H75.4611V21H74.6211ZM77.1411 21V4.48H77.9811V21H77.1411ZM78.8211 21V4.48H80.5011V21H78.8211ZM79.1851 25.06C79.8571 25.06 80.3704 25.2373 80.7251 25.592C81.0798 25.9467 81.2571 26.5533 81.2571 27.412V29.932H80.4451V29.204C80.1651 29.764 79.6238 30.044 78.8211 30.044C78.2984 30.044 77.8878 29.9227 77.5891 29.68C77.2904 29.4373 77.1411 29.12 77.1411 28.728C77.1411 28.392 77.2531 28.1027 77.4771 27.86C77.6824 27.6173 77.9718 27.4213 78.3451 27.272C78.6998 27.1413 79.1011 27.076 79.5491 27.076C79.9411 27.076 80.2958 27.0947 80.6131 27.132C80.5758 26.6093 80.4358 26.236 80.1931 26.012C79.9504 25.788 79.5958 25.676 79.1291 25.676C78.8864 25.676 78.6624 25.7227 78.4571 25.816C78.2331 25.9093 78.0278 26.04 77.8411 26.208L77.4771 25.732C77.9251 25.284 78.4944 25.06 79.1851 25.06ZM78.9051 29.484C79.4278 29.484 79.8384 29.3253 80.1371 29.008C80.4358 28.7093 80.5944 28.28 80.6131 27.72C80.2958 27.664 79.9598 27.636 79.6051 27.636C79.0824 27.636 78.6624 27.7293 78.3451 27.916C78.0464 28.084 77.8971 28.3453 77.8971 28.7C77.8971 29.2227 78.2331 29.484 78.9051 29.484ZM83.8633 21V4.48H87.2233V21H83.8633ZM88.0633 21V4.48H90.5833V21H88.0633ZM91.4233 21V4.48H92.2633V21H91.4233ZM86.2713 25.172H86.9713V25.648C87.0833 25.48 87.2233 25.34 87.3913 25.228C87.5593 25.116 87.7366 25.06 87.9233 25.06C88.1286 25.06 88.3153 25.1253 88.4833 25.256C88.6326 25.3867 88.7259 25.5547 88.7633 25.76C88.8566 25.5547 89.0059 25.3867 89.2113 25.256C89.3979 25.1253 89.6126 25.06 89.8553 25.06C90.1539 25.06 90.3873 25.172 90.5553 25.396C90.7046 25.62 90.7699 25.9187 90.7513 26.292V29.932H90.0793V26.572C90.0793 26.1613 90.0419 25.9 89.9673 25.788C89.8926 25.676 89.7806 25.62 89.6313 25.62C89.5006 25.62 89.3793 25.676 89.2673 25.788C89.1553 25.9 89.0619 26.0493 88.9873 26.236C88.9126 26.4227 88.8753 26.6093 88.8753 26.796V29.932H88.1753V26.628C88.1753 26.236 88.1379 25.9747 88.0633 25.844C87.9886 25.6947 87.8486 25.62 87.6433 25.62C87.5499 25.62 87.4473 25.6667 87.3353 25.76C87.2233 25.8533 87.1299 25.9933 87.0553 26.18C86.9993 26.348 86.9713 26.544 86.9713 26.768V29.932H86.2713V25.172ZM93.1055 21V4.48H93.9455V21H93.1055ZM94.7855 21V4.48H96.4655V21H94.7855ZM98.1455 21V4.48H98.9855V21H98.1455ZM97.9495 30.044C97.2401 30.044 96.6801 29.8293 96.2695 29.4C95.8401 28.9707 95.6255 28.364 95.6255 27.58C95.6255 27.0573 95.7281 26.6 95.9335 26.208C96.1201 25.8347 96.3815 25.5547 96.7175 25.368C97.0348 25.1627 97.3988 25.06 97.8095 25.06C98.3881 25.06 98.8548 25.2467 99.2095 25.62C99.5641 26.012 99.7415 26.5813 99.7415 27.328C99.7415 27.4027 99.7415 27.5147 99.7415 27.664H96.3535C96.3721 28.2427 96.5308 28.6813 96.8295 28.98C97.1281 29.2787 97.5108 29.428 97.9775 29.428C98.4815 29.428 98.8921 29.2507 99.2095 28.896L99.6295 29.316C99.2188 29.8013 98.6588 30.044 97.9495 30.044ZM98.9855 27.076C98.9855 26.628 98.8735 26.2733 98.6495 26.012C98.4255 25.7507 98.1268 25.62 97.7535 25.62C97.4175 25.62 97.1188 25.7413 96.8575 25.984C96.5961 26.2267 96.4375 26.5907 96.3815 27.076H98.9855ZM102.348 21V4.48H103.188V21H102.348ZM104.028 21V4.48H107.388V21H104.028ZM109.068 21V4.48H109.908V21H109.068ZM106.968 30.044C106.165 30.044 105.493 29.792 104.952 29.288L105.372 28.588L105.428 28.476L105.512 28.532C105.512 28.5507 105.512 28.5787 105.512 28.616C105.53 28.672 105.549 28.7187 105.568 28.756C105.605 28.812 105.642 28.868 105.68 28.924C105.848 29.0733 106.034 29.1947 106.24 29.288C106.445 29.3627 106.697 29.4 106.996 29.4C107.369 29.4 107.668 29.3347 107.892 29.204C108.097 29.0733 108.2 28.8867 108.2 28.644C108.2 28.4387 108.116 28.2707 107.948 28.14C107.78 28.0093 107.462 27.8787 106.996 27.748C105.801 27.3933 105.204 26.8987 105.204 26.264C105.204 25.8907 105.362 25.6013 105.68 25.396C105.978 25.172 106.408 25.06 106.968 25.06C107.397 25.06 107.761 25.1253 108.06 25.256C108.358 25.368 108.629 25.5547 108.872 25.816L108.424 26.32L108.368 26.404L108.312 26.348C108.312 26.2733 108.293 26.2173 108.256 26.18C108.237 26.124 108.19 26.068 108.116 26.012C107.948 25.8813 107.77 25.788 107.584 25.732C107.378 25.6573 107.182 25.62 106.996 25.62C106.697 25.62 106.445 25.676 106.24 25.788C106.053 25.8813 105.96 26.0213 105.96 26.208C105.96 26.3947 106.062 26.5533 106.268 26.684C106.454 26.8333 106.8 26.9827 107.304 27.132C107.901 27.3187 108.321 27.5147 108.564 27.72C108.825 27.9253 108.956 28.2053 108.956 28.56C108.956 28.9893 108.788 29.344 108.452 29.624C108.116 29.904 107.621 30.044 106.968 30.044Z" fill="white"/>
</svg>
